<svg xmlns="http://www.w3.org/2000/svg" viewBox="0 0 720 100">
  <defs>
    <!-- Angular 2023 gradient (pink → purple, left to right) -->
    <linearGradient id="ng-grad" x1="0" y1="0" x2="1" y2="0">
      <stop offset="0%" stop-color="#F72585"/>
      <stop offset="100%" stop-color="#9C27B0"/>
    </linearGradient>
  </defs>

  <!-- Background -->
  <rect width="720" height="100" fill="#0d1117" rx="12"/>

  <!--
    Animation: 12s cycle, 5 states with alternating left/right transitions
    Each state: 2s hold + 0.4s transition (0.2s fade-out then 0.2s fade-in, no overlap)
    Layout: logo on left, name on right within each slot
  -->

  <!-- ==================== LEFT SLOT ==================== -->

  <!-- ANGULAR -->
  <g opacity="0">
    <animate attributeName="opacity" dur="12s" repeatCount="indefinite"
      keyTimes="0;0.1667;0.1833;0.9833;1"
      values="1;1;0;0;1"/>
    <animateTransform attributeName="transform" type="translate" dur="12s" repeatCount="indefinite"
      keyTimes="0;0.1667;0.1833;0.187;0.9833;1"
      values="0 0;0 0;0 -15;0 15;0 15;0 0"/>
    <!-- Angular 2023 geometric "A" logo -->
    <g transform="translate(100, 50)">
      <!-- Left wing -->
      <path d="M-1,-22 L-20,6 L-9,18 Z" fill="url(#ng-grad)"/>
      <!-- Right wing -->
      <path d="M3,-22 L20,6 L11,18 Z" fill="url(#ng-grad)"/>
      <!-- Center triangle (inside the A) -->
      <path d="M-5,0 L5,0 L0,9 Z" fill="url(#ng-grad)"/>
      <!-- Bottom pentagon -->
      <path d="M-11,15 L11,15 L8,23 L-8,23 Z" fill="url(#ng-grad)"/>
    </g>
    <text x="135" y="54" font-family="Arial, Helvetica, sans-serif" font-size="18" font-weight="bold" fill="#E040A0">Angular</text>
  </g>

  <!-- REACT -->
  <g opacity="0">
    <animate attributeName="opacity" dur="12s" repeatCount="indefinite"
      keyTimes="0;0.1833;0.2;0.5667;0.5833;1"
      values="0;0;1;1;0;0"/>
    <animateTransform attributeName="transform" type="translate" dur="12s" repeatCount="indefinite"
      keyTimes="0;0.1833;0.2;0.5667;0.5833;0.587;1"
      values="0 15;0 15;0 0;0 0;0 -15;0 15;0 15"/>
    <g transform="translate(100, 50)">
      <circle cx="0" cy="0" r="3.8" fill="#61DAFB"/>
      <ellipse cx="0" cy="0" rx="20" ry="8" fill="none" stroke="#61DAFB" stroke-width="1.6"/>
      <ellipse cx="0" cy="0" rx="20" ry="8" fill="none" stroke="#61DAFB" stroke-width="1.6" transform="rotate(60)"/>
      <ellipse cx="0" cy="0" rx="20" ry="8" fill="none" stroke="#61DAFB" stroke-width="1.6" transform="rotate(-60)"/>
    </g>
    <text x="135" y="54" font-family="Arial, Helvetica, sans-serif" font-size="18" font-weight="bold" fill="#61DAFB">React</text>
  </g>

  <!-- VUE.JS -->
  <g opacity="0">
    <animate attributeName="opacity" dur="12s" repeatCount="indefinite"
      keyTimes="0;0.5833;0.6;0.9667;0.9833;1"
      values="0;0;1;1;0;0"/>
    <animateTransform attributeName="transform" type="translate" dur="12s" repeatCount="indefinite"
      keyTimes="0;0.5833;0.6;0.9667;0.9833;0.987;1"
      values="0 15;0 15;0 0;0 0;0 -15;0 15;0 15"/>
    <g transform="translate(100, 50)">
      <path d="M-20,-20 L0,18 L20,-20 L12,-20 L0,2 L-12,-20 Z" fill="#34495E"/>
      <path d="M-12,-20 L0,2 L12,-20 L7,-20 L0,-8 L-7,-20 Z" fill="#41B883"/>
    </g>
    <text x="135" y="54" font-family="Arial, Helvetica, sans-serif" font-size="18" font-weight="bold" fill="#41B883">Vue.js</text>
  </g>

  <!-- ==================== CENTER ARROW ==================== -->
  <g transform="translate(360, 50)">
    <line x1="-40" y1="0" x2="40" y2="0" stroke="#8b949e" stroke-width="2.5" stroke-linecap="round"/>
    <polygon points="-40,0 -30,-6 -30,6" fill="#8b949e"/>
    <polygon points="40,0 30,-6 30,6" fill="#8b949e"/>
  </g>

  <!-- ==================== RIGHT SLOT ==================== -->

  <!-- DJANGO -->
  <g opacity="0">
    <animate attributeName="opacity" dur="12s" repeatCount="indefinite"
      keyTimes="0;0.3667;0.3833;0.7833;0.8;1"
      values="1;1;0;0;1;1"/>
    <animateTransform attributeName="transform" type="translate" dur="12s" repeatCount="indefinite"
      keyTimes="0;0.3667;0.3833;0.387;0.7833;0.8;1"
      values="0 0;0 0;0 -15;0 15;0 15;0 0;0 0"/>
    <g transform="translate(500, 50)">
      <rect x="-18" y="-20" width="36" height="40" rx="3" fill="#092E20"/>
      <text x="0" y="7" text-anchor="middle" font-family="Georgia, 'Times New Roman', serif" font-size="26" font-weight="bold" fill="white">D</text>
    </g>
    <text x="535" y="54" font-family="Arial, Helvetica, sans-serif" font-size="18" font-weight="bold" fill="#44B78B">django</text>
  </g>

  <!-- HONO -->
  <g opacity="0">
    <animate attributeName="opacity" dur="12s" repeatCount="indefinite"
      keyTimes="0;0.3833;0.4;0.7667;0.7833;1"
      values="0;0;1;1;0;0"/>
    <animateTransform attributeName="transform" type="translate" dur="12s" repeatCount="indefinite"
      keyTimes="0;0.3833;0.4;0.7667;0.7833;0.787;1"
      values="0 15;0 15;0 0;0 0;0 -15;0 15;0 15"/>
    <!-- Official Hono logo from Wikimedia Commons (CC0) -->
    <g transform="translate(500, 50) scale(0.08) translate(-250, -250)">
      <path style="opacity:0.993" fill="#ff5b11" d="M 257.5,0.5 C 258.822,0.330034 259.989,0.663368 261,1.5C 298.193,46.8936 333.193,93.8936 366,142.5C 390.289,179.069 410.955,217.735 428,258.5C 455.221,331.104 441.054,394.271 385.5,448C 336.892,489.082 280.892,505.082 217.5,496C 141.727,480.551 90.2265,436.718 63,364.5C 55.9081,340.989 53.5748,316.989 56,292.5C 60.0384,250.347 70.0384,209.68 86,170.5C 92.6509,154.514 101.318,139.848 112,126.5C 120.715,136.88 129.048,147.547 137,158.5C 140.682,162.349 144.515,166.016 148.5,169.5C 178.917,109.136 215.251,52.8028 257.5,0.5 Z"/>
      <path style="opacity:1" fill="#ff9758" d="M 250.5,81.5 C 287.193,124.06 320.36,169.393 350,217.5C 359.293,233.418 366.959,250.085 373,267.5C 385.584,317.008 372.084,357.842 332.5,390C 294.216,416.939 252.216,424.939 206.5,414C 157.201,398.702 128.701,365.535 121,314.5C 119.131,298.409 120.798,282.742 126,267.5C 133.418,248.663 142.418,230.663 153,213.5C 163,198.833 173,184.167 183,169.5C 205.716,140.29 228.216,110.957 250.5,81.5 Z"/>
    </g>
    <text x="535" y="54" font-family="Arial, Helvetica, sans-serif" font-size="18" font-weight="bold" fill="#FF5B11">Hono</text>
  </g>

</svg>
