<svg xmlns="http://www.w3.org/2000/svg" viewBox="0 0 720 100">
  <defs>
    <!-- Angular 2023 gradient (pink → purple, left to right) -->
    <linearGradient id="ng-grad" x1="0" y1="0" x2="1" y2="0">
      <stop offset="0%" stop-color="#F72585"/>
      <stop offset="100%" stop-color="#9C27B0"/>
    </linearGradient>
  </defs>

  <!-- Background -->
  <rect width="720" height="100" fill="#0d1117" rx="12"/>

  <!--
    Animation: 12s cycle, 5 states with alternating left/right transitions
    Each state: 2s hold + 0.4s transition (0.2s fade-out then 0.2s fade-in, no overlap)
    Layout: logo on left, name on right within each slot
  -->

  <!-- ==================== LEFT SLOT ==================== -->

  <!-- ANGULAR -->
  <g opacity="0">
    <animate attributeName="opacity" dur="12s" repeatCount="indefinite"
      keyTimes="0;0.1667;0.1833;0.9833;1"
      values="1;1;0;0;1"/>
    <animateTransform attributeName="transform" type="translate" dur="12s" repeatCount="indefinite"
      keyTimes="0;0.1667;0.1833;0.187;0.9833;1"
      values="0 0;0 0;0 -15;0 15;0 15;0 0"/>
    <!-- Official Angular lockup (icon + wordmark) with 2023 gradient -->
    <g transform="translate(68, 22) scale(0.15)">
      <path fill="url(#ng-grad)" d="M515.4,288h37.7L484.4,92.7h-43.7L372,288h37.7l16.1-48.1h73.4L515.4,288z M435.4,211.4l26.4-78.6h1.5 l26.4,78.6H435.4z M590.4,202.2V288h-34.5V141.6h33v24.9h1.7c3.4-8.2,8.8-14.7,16.2-19.5c7.4-4.8,16.6-7.2,27.5-7.2 c10.1,0,18.9,2.2,26.5,6.5c7.5,4.3,13.4,10.6,17.5,18.8c4.2,8.2,6.2,18.1,6.1,29.8V288h-34.5v-87.9c0-9.8-2.5-17.4-7.6-23 c-5.1-5.5-12-8.3-20.9-8.3c-6,0-11.4,1.3-16.1,4c-4.7,2.6-8.3,6.4-11,11.4C591.8,189.1,590.4,195.1,590.4,202.2z M760.5,345.9 c-12.4,0-23-1.7-31.9-5c-8.9-3.3-16-7.8-21.4-13.4c-5.4-5.6-9.2-11.8-11.2-18.6l31.1-7.5c1.4,2.9,3.4,5.7,6.1,8.5 c2.7,2.8,6.3,5.2,10.8,7.1c4.5,1.9,10.3,2.8,17.2,2.8c9.8,0,17.9-2.4,24.3-7.1c6.4-4.7,9.6-12.5,9.6-23.3v-27.7h-1.7 c-1.8,3.6-4.4,7.2-7.8,11c-3.4,3.8-7.9,6.9-13.4,9.4c-5.6,2.5-12.5,3.8-20.9,3.8c-11.2,0-21.4-2.7-30.6-8 c-9.1-5.3-16.4-13.3-21.7-23.8c-5.4-10.6-8.1-23.8-8.1-39.8c0-16.1,2.7-29.7,8.1-40.8c5.4-11.1,12.6-19.5,21.8-25.3 c9.2-5.8,19.4-8.6,30.6-8.6c8.6,0,15.7,1.4,21.2,4.3c5.6,2.9,10,6.4,13.3,10.4c3.3,4,5.8,7.8,7.5,11.4h1.9v-24.2h34v148.8 c0,12.5-3,22.9-9,31.1c-6,8.2-14.1,14.3-24.5,18.4C785.4,343.9,773.6,345.9,760.5,345.9z M760.8,258.8c7.3,0,13.5-1.8,18.7-5.3 c5.1-3.6,9.1-8.7,11.7-15.3c2.7-6.7,4-14.7,4-24c0-9.2-1.3-17.3-4-24.2c-2.6-6.9-6.5-12.3-11.6-16.2c-5.1-3.8-11.4-5.8-18.8-5.8 c-7.7,0-14.1,2-19.3,6c-5.1,4-9,9.5-11.6,16.4c-2.6,7-3.9,14.9-3.9,23.7c0,9,1.3,16.8,4,23.5c2.6,6.7,6.5,11.9,11.7,15.6 C746.8,256.9,753.2,258.8,760.8,258.8z M933.8,226.4v-84.8h34.5V288h-33.5v-26h-1.5c-3.3,8.2-8.7,14.9-16.3,20.1 c-7.5,5.2-16.8,7.8-27.8,7.8c-9.6,0-18.1-2.1-25.4-6.4s-13.1-10.5-17.2-18.8c-4.1-8.2-6.2-18.2-6.2-29.9v-93.2H875v87.9 c0,9.3,2.5,16.7,7.6,22.1c5.1,5.5,11.8,8.2,20,8.2c5.1,0,10-1.2,14.8-3.7c4.8-2.5,8.7-6.2,11.8-11.1 C932.3,240,933.8,233.8,933.8,226.4z M1014.1,92.7V288h-34.5V92.7H1014.1z M1068.9,290.9c-9.3,0-17.6-1.7-25-5 c-7.4-3.3-13.3-8.3-17.5-14.8c-4.3-6.5-6.4-14.6-6.4-24.2c0-8.3,1.5-15.1,4.6-20.5c3.1-5.4,7.2-9.7,12.5-13 c5.3-3.2,11.2-5.7,17.9-7.4c6.6-1.7,13.5-2.9,20.6-3.7c8.6-0.9,15.5-1.7,20.9-2.4c5.3-0.7,9.2-1.9,11.7-3.4c2.4-1.6,3.7-4,3.7-7.3 v-0.6c0-7.2-2.1-12.7-6.4-16.7c-4.3-3.9-10.4-5.9-18.4-5.9c-8.5,0-15.1,1.8-20.1,5.5c-4.9,3.7-8.2,8-10,13.1l-32.2-4.6 c2.5-8.9,6.7-16.3,12.6-22.4c5.8-6,13-10.5,21.4-13.5c8.5-3,17.8-4.5,28-4.5c7.1,0,14.1,0.8,21.1,2.5c7,1.7,13.4,4.4,19.2,8.2 c5.8,3.8,10.4,8.9,14,15.4c3.5,6.5,5.3,14.6,5.3,24.3v98h-33.2v-20.1h-1.1c-2.1,4.1-5,7.9-8.8,11.4c-3.8,3.5-8.5,6.4-14.2,8.5 C1083.2,289.9,1076.6,290.9,1068.9,290.9z M1077.9,265.6c6.9,0,12.9-1.4,18-4.1c5.1-2.8,9-6.4,11.8-11c2.8-4.6,4.1-9.6,4.1-15v-17.3 c-1.1,0.9-2.9,1.7-5.5,2.5c-2.6,0.8-5.4,1.4-8.6,2c-3.2,0.6-6.3,1.1-9.4,1.5c-3.1,0.4-5.8,0.8-8.1,1.1c-5.1,0.7-9.8,1.8-13.8,3.4 c-4.1,1.6-7.3,3.8-9.6,6.6c-2.4,2.8-3.5,6.5-3.5,10.9c0,6.4,2.3,11.2,7,14.4C1064.8,264,1070.7,265.6,1077.9,265.6z M1156.9,288 V141.6h33.5V166h1.5c2.7-8.5,7.3-15,13.8-19.6c6.5-4.6,14-6.9,22.4-6.9c1.9,0,4.1,0.1,6.4,0.2c2.4,0.2,4.4,0.4,6,0.7v31.7 c-1.5-0.5-3.8-1-6.9-1.4c-3.1-0.4-6.2-0.6-9.1-0.6c-6.3,0-11.9,1.4-16.9,4.1c-5,2.7-8.9,6.4-11.8,11.2c-2.9,4.8-4.3,10.3-4.3,16.5 V288H1156.9z M311.8,101.7L302,255.6L208.3,53.8L311.8,101.7z M246.9,300.7l-70.8,40.4l-70.8-40.4l14.4-34.9h112.8L246.9,300.7z M176.1,130.4l37.1,90.2H139L176.1,130.4z M50.1,255.6l-9.7-153.9l103.5-47.9L50.1,255.6z"/>
    </g>
  </g>

  <!-- REACT -->
  <g opacity="0">
    <animate attributeName="opacity" dur="12s" repeatCount="indefinite"
      keyTimes="0;0.1833;0.2;0.5667;0.5833;1"
      values="0;0;1;1;0;0"/>
    <animateTransform attributeName="transform" type="translate" dur="12s" repeatCount="indefinite"
      keyTimes="0;0.1833;0.2;0.5667;0.5833;0.587;1"
      values="0 15;0 15;0 0;0 0;0 -15;0 15;0 15"/>
    <g transform="translate(100, 50)">
      <circle cx="0" cy="0" r="3.8" fill="#61DAFB"/>
      <ellipse cx="0" cy="0" rx="20" ry="8" fill="none" stroke="#61DAFB" stroke-width="1.6"/>
      <ellipse cx="0" cy="0" rx="20" ry="8" fill="none" stroke="#61DAFB" stroke-width="1.6" transform="rotate(60)"/>
      <ellipse cx="0" cy="0" rx="20" ry="8" fill="none" stroke="#61DAFB" stroke-width="1.6" transform="rotate(-60)"/>
    </g>
    <text x="135" y="54" font-family="Arial, Helvetica, sans-serif" font-size="18" font-weight="bold" fill="#61DAFB">React</text>
  </g>

  <!-- VUE.JS -->
  <g opacity="0">
    <animate attributeName="opacity" dur="12s" repeatCount="indefinite"
      keyTimes="0;0.5833;0.6;0.9667;0.9833;1"
      values="0;0;1;1;0;0"/>
    <animateTransform attributeName="transform" type="translate" dur="12s" repeatCount="indefinite"
      keyTimes="0;0.5833;0.6;0.9667;0.9833;0.987;1"
      values="0 15;0 15;0 0;0 0;0 -15;0 15;0 15"/>
    <g transform="translate(100, 50)">
      <path d="M-20,-20 L0,18 L20,-20 L12,-20 L0,2 L-12,-20 Z" fill="#34495E"/>
      <path d="M-12,-20 L0,2 L12,-20 L7,-20 L0,-8 L-7,-20 Z" fill="#41B883"/>
    </g>
    <text x="135" y="54" font-family="Arial, Helvetica, sans-serif" font-size="18" font-weight="bold" fill="#41B883">Vue.js</text>
  </g>

  <!-- ==================== CENTER ARROW ==================== -->
  <g transform="translate(360, 50)">
    <line x1="-40" y1="0" x2="40" y2="0" stroke="#8b949e" stroke-width="2.5" stroke-linecap="round"/>
    <polygon points="-40,0 -30,-6 -30,6" fill="#8b949e"/>
    <polygon points="40,0 30,-6 30,6" fill="#8b949e"/>
  </g>

  <!-- ==================== RIGHT SLOT ==================== -->

  <!-- DJANGO -->
  <g opacity="0">
    <animate attributeName="opacity" dur="12s" repeatCount="indefinite"
      keyTimes="0;0.3667;0.3833;0.7833;0.8;1"
      values="1;1;0;0;1;1"/>
    <animateTransform attributeName="transform" type="translate" dur="12s" repeatCount="indefinite"
      keyTimes="0;0.3667;0.3833;0.387;0.7833;0.8;1"
      values="0 0;0 0;0 -15;0 15;0 15;0 0;0 0"/>
    <!-- Official Django logo from Wikimedia Commons -->
    <g transform="translate(470, 27) scale(0.5)">
      <g transform="translate(121.06306,-355.93976)">
        <path d="m -101.47577,400.00486 c -0.0431,8.1975 5.967822,13.08438 15.560005,10.8625 l 0,-21.725 c -9.713433,-2.95812 -15.519375,3.02656 -15.560005,10.8625 m 15.853442,-42.27625 13.21125,0 0,62.53344 c -12.663437,2.07031 -24.79187,3.38344 -33.468442,-1.46813 -11.17187,-6.24625 -12.07,-26.09562 -3.22968,-34.93625 4.48218,-4.48187 13.505622,-7.63718 23.193435,-5.57812 l 0,-19.67 c -0.02531,-0.41688 -0.04875,-0.83188 0.293437,-0.88094" style="fill:#092E20;fill-opacity:1;fill-rule:evenodd;stroke:none"/>
        <path d="m -50.979419,371.52699 -13.211251,0 0,-13.79844 13.211251,0 0,13.79844 z" style="fill:#092E20;fill-opacity:1;fill-rule:evenodd;stroke:none"/>
        <path d="m 107.55577,411.45442 c 14.40218,5.59688 15.99562,-25.77875 1.46812,-22.89968 -9.02187,1.78812 -8.73218,20.07687 -1.46812,22.89968 m 0.58718,-33.76218 c 10.99844,-1.17594 19.29594,3.6775 22.60625,11.15625 5.64813,12.76031 -0.31062,27.40218 -9.39468,31.70718 -4.70813,2.23125 -9.63813,2.44375 -14.09219,2.055 -13.766874,-1.20062 -22.449374,-15.23062 -17.614999,-30.82656 0.756562,-2.44094 1.606562,-3.93406 2.055312,-4.69719 2.9925,-5.08812 8.044688,-8.49687 16.440307,-9.39468" style="fill:#092E20;fill-opacity:1;fill-rule:evenodd;stroke:none"/>
        <path d="m -32.777012,406.46358 c -3.654062,6.14094 5.526875,7.61219 11.449375,5.87187 l 0,-9.10125 c -4.550625,0.63532 -9.730312,0.33969 -11.449375,3.22938 m 23.192813,14.38562 c -10.913125,0.62782 -27.498125,4.34532 -33.468438,-2.93562 -3.5075,-4.27813 -3.130312,-12.43781 0,-16.44094 4.045313,-5.1725 12.875938,-6.30062 20.844375,-7.04594 0.723438,-1.78125 0.235625,-4.67937 -0.587187,-5.87218 -7.28875,-1.85657 -14.530625,1.02031 -19.669688,3.22937 l 0,-10.275 c 7.761875,-3.56625 25.740625,-7.32125 31.119688,0.88063 2.825,4.30781 1.76125,11.82062 1.76125,18.49562 l 0,19.96406 z" style="fill:#092E20;fill-opacity:1;fill-rule:evenodd;stroke:none"/>
        <path d="m 36.802301,421.43674 -13.21125,0 0,-17.02813 c 0,-5.60656 0.906875,-12.71562 -2.055625,-14.97281 -2.32,-1.76875 -7.824063,-0.88125 -11.155625,0 l 0,32.00094 -13.2115628,0 0,-40.80844 c 13.5053128,-3.50813 37.8831248,-7.26938 39.6340628,9.68812 0.863437,8.36063 -0.639688,20.90407 0,31.12032" style="fill:#092E20;fill-opacity:1;fill-rule:evenodd;stroke:none"/>
        <path d="m 56.472393,407.34433 c 2.223125,3.59687 8.243125,4.94562 13.210938,2.64219 -0.272813,-6.87094 -0.368125,-13.91938 -0.293438,-21.13813 -11.4175,-3.01656 -18.221875,9.91594 -12.9175,18.49594 m 33.175,-27.89031 c -1.175937,3.52156 -2.896875,6.4975 -4.40375,9.68843 -1.361562,0.305 -2.541562,-0.54125 -3.229687,0 -0.30125,14.31094 3.047812,33.71157 -2.642188,44.03719 -3.425937,6.21688 -9.733437,10.20531 -19.376562,10.86281 -7.024688,0.47907 -12.476875,-0.66875 -17.615,-2.64218 l 0,-12.33063 c 6.026562,3.51875 21.255,6.3875 25.541875,-0.88094 1.26125,-2.13843 1.18125,-4.34875 1.76125,-7.63312 -2.76,0.145 -5.439375,1.42312 -8.807188,1.46812 -13.845937,0.18375 -22.411875,-10.84093 -19.083125,-26.12937 1.2875,-5.91375 4.7525,-10.67531 9.395,-13.50469 9.641875,-5.87656 24.462813,-5.43031 38.459375,-2.93562" style="fill:#092E20;fill-opacity:1;fill-rule:evenodd;stroke:none"/>
        <path d="m -50.979389,378.51405 c -0.015,9.72844 -0.0128,16.71906 -0.01375,28.53781 -0.56125,11.61469 -0.430625,20.86375 -4.683438,26.42125 -0.83875,1.09594 -2.62,2.69469 -4.110312,3.81688 -1.251564,0.94218 -3.636876,2.85281 -4.990939,2.93593 -1.365,0.0838 -4.871875,-1.895 -6.459062,-2.6425 -2.084063,-0.98156 -4.010625,-2.285 -6.165,-2.93562 5.025312,-3.11406 9.795625,-5.44875 11.743125,-11.74344 1.69375,-5.47437 1.468125,-13.40719 1.468125,-21.13812 0,-7.63375 0.03406,-16.50875 0.03406,-23.24875 l 13.177189,-0.003 z" style="fill:#092E20;fill-opacity:1;fill-rule:evenodd;stroke:none"/>
      </g>
    </g>
  </g>

  <!-- HONO -->
  <g opacity="0">
    <animate attributeName="opacity" dur="12s" repeatCount="indefinite"
      keyTimes="0;0.3833;0.4;0.7667;0.7833;1"
      values="0;0;1;1;0;0"/>
    <animateTransform attributeName="transform" type="translate" dur="12s" repeatCount="indefinite"
      keyTimes="0;0.3833;0.4;0.7667;0.7833;0.787;1"
      values="0 15;0 15;0 0;0 0;0 -15;0 15;0 15"/>
    <!-- Official Hono logo from Wikimedia Commons (CC0) -->
    <g transform="translate(500, 50) scale(0.08) translate(-250, -250)">
      <path style="opacity:0.993" fill="#ff5b11" d="M 257.5,0.5 C 258.822,0.330034 259.989,0.663368 261,1.5C 298.193,46.8936 333.193,93.8936 366,142.5C 390.289,179.069 410.955,217.735 428,258.5C 455.221,331.104 441.054,394.271 385.5,448C 336.892,489.082 280.892,505.082 217.5,496C 141.727,480.551 90.2265,436.718 63,364.5C 55.9081,340.989 53.5748,316.989 56,292.5C 60.0384,250.347 70.0384,209.68 86,170.5C 92.6509,154.514 101.318,139.848 112,126.5C 120.715,136.88 129.048,147.547 137,158.5C 140.682,162.349 144.515,166.016 148.5,169.5C 178.917,109.136 215.251,52.8028 257.5,0.5 Z"/>
      <path style="opacity:1" fill="#ff9758" d="M 250.5,81.5 C 287.193,124.06 320.36,169.393 350,217.5C 359.293,233.418 366.959,250.085 373,267.5C 385.584,317.008 372.084,357.842 332.5,390C 294.216,416.939 252.216,424.939 206.5,414C 157.201,398.702 128.701,365.535 121,314.5C 119.131,298.409 120.798,282.742 126,267.5C 133.418,248.663 142.418,230.663 153,213.5C 163,198.833 173,184.167 183,169.5C 205.716,140.29 228.216,110.957 250.5,81.5 Z"/>
    </g>
    <text x="535" y="54" font-family="Arial, Helvetica, sans-serif" font-size="18" font-weight="bold" fill="#FF5B11">Hono</text>
  </g>

</svg>
